<svg width="20" height="21" viewBox="0 0 20 21" fill="none" xmlns="http://www.w3.org/2000/svg">
<path d="M11.8891 6.60067H3.12869C2.96273 6.60067 2.80357 6.53112 2.68622 6.40734C2.56887 6.28355 2.50295 6.11566 2.50295 5.9406V3.30033C2.50295 3.12527 2.56887 2.95738 2.68622 2.8336C2.80357 2.70981 2.96273 2.64027 3.12869 2.64027H11.8891C12.055 2.64027 12.2142 2.70981 12.3315 2.8336C12.4489 2.95738 12.5148 3.12527 12.5148 3.30033V5.9406C12.5148 6.11566 12.4489 6.28355 12.3315 6.40734C12.2142 6.53112 12.055 6.60067 11.8891 6.60067ZM3.75443 5.28053H11.2633V3.9208H3.75443V5.28053Z" fill="#F1F1F1"/>
<path d="M11.8891 7.97361H3.12869C2.96273 7.97361 2.80357 8.04315 2.68622 8.16694C2.56887 8.29072 2.50295 8.45861 2.50295 8.63367V11.2211C2.50295 11.3962 2.56887 11.5641 2.68622 11.6879C2.80357 11.8117 2.96273 11.8812 3.12869 11.8812H10.2371L12.5148 9.43895V8.63367C12.5148 8.45861 12.4489 8.29072 12.3315 8.16694C12.2142 8.04315 12.055 7.97361 11.8891 7.97361ZM11.2633 10.5611H3.75443V9.24093H11.2633V10.5611Z" fill="#F1F1F1"/>
<path d="M5.66921 19.4786V19.439L5.86945 18.5215H1.25148V1.32013H13.7663V8.08582L15.0178 6.83829V0.660067C15.0178 0.485006 14.9518 0.317115 14.8345 0.193329C14.7172 0.0695425 14.558 0 14.392 0H0.625741C0.459784 0 0.300624 0.0695425 0.183275 0.193329C0.065926 0.317115 0 0.485006 0 0.660067V19.1419C0 19.317 0.065926 19.4849 0.183275 19.6087C0.300624 19.7325 0.459784 19.802 0.625741 19.802H5.63167C5.63682 19.6934 5.64937 19.5853 5.66921 19.4786Z" fill="#F1F1F1"/>
<path d="M12.5148 11.3333L12.0267 11.8548C12.1478 11.8285 12.2588 11.7649 12.3457 11.6721C12.4325 11.5793 12.4914 11.4614 12.5148 11.3333Z" fill="#F1F1F1"/>
<path d="M2.50295 16.4621C2.50295 16.6371 2.56887 16.805 2.68622 16.9288C2.80357 17.0526 2.96273 17.1221 3.12869 17.1221H6.15727L6.34499 16.264L6.42634 15.901V15.868H3.75443V14.5215H7.72162L8.97311 13.2013H3.12869C2.96273 13.2013 2.80357 13.2709 2.68622 13.3947C2.56887 13.5184 2.50295 13.6863 2.50295 13.8614V16.4621Z" fill="#F1F1F1"/>
<path d="M19.7045 9.68317L17.5957 7.45875C17.5022 7.35976 17.391 7.28122 17.2686 7.22763C17.1462 7.17404 17.0149 7.14646 16.8824 7.14646C16.7499 7.14646 16.6186 7.17404 16.4962 7.22763C16.3738 7.28122 16.2626 7.35976 16.169 7.45875L7.59014 16.5611L6.88306 19.736C6.85658 19.873 6.85599 20.0141 6.8813 20.1513C6.90662 20.2885 6.95735 20.4191 7.03059 20.5356C7.10383 20.6521 7.19814 20.7522 7.30812 20.8302C7.41809 20.9082 7.54157 20.9625 7.67149 20.9901C7.73599 20.997 7.80097 20.997 7.86547 20.9901C7.94214 21.0033 8.02032 21.0033 8.09699 20.9901L11.1318 20.2838L19.7045 11.2211C19.7981 11.123 19.8725 11.0062 19.9232 10.8777C19.9739 10.7491 20 10.6112 20 10.472C20 10.3327 19.9739 10.1948 19.9232 10.0662C19.8725 9.93766 19.7981 9.82093 19.7045 9.72278V9.68317ZM10.4936 19.0825L8.20337 19.6172L8.76028 17.2211L15.1929 10.363L16.9575 12.2244L10.4936 19.0825ZM17.6646 11.4786L15.9 9.61717L16.8949 8.58086L18.672 10.4555L17.6646 11.4786Z" fill="#F1F1F1"/>
</svg>
