<svg width="13" height="16" viewBox="0 0 13 16" fill="none" xmlns="http://www.w3.org/2000/svg">
<path d="M6.50004 8.7C7.63912 8.7 8.56254 7.7598 8.56254 6.6C8.56254 5.4402 7.63912 4.5 6.50004 4.5C5.36095 4.5 4.43754 5.4402 4.43754 6.6C4.43754 7.7598 5.36095 8.7 6.50004 8.7Z" stroke="#F1F1F1" stroke-width="1.66667" stroke-linecap="round" stroke-linejoin="round"/>
<path d="M6.5 1C5.04131 1 3.64236 1.59 2.61091 2.6402C1.57946 3.69041 1 5.11479 1 6.6C1 7.9244 1.27637 8.791 2.03125 9.75L6.5 15L10.9687 9.75C11.7236 8.791 12 7.9244 12 6.6C12 5.11479 11.4205 3.69041 10.3891 2.6402C9.35764 1.59 7.95869 1 6.5 1Z" stroke="#F1F1F1" stroke-width="1.66667" stroke-linecap="round" stroke-linejoin="round"/>
</svg>
