<svg width="18" height="17" viewBox="0 0 18 17" fill="none" xmlns="http://www.w3.org/2000/svg">
<path d="M10.791 3.86696C11.4924 4.00354 12.137 4.34592 12.6424 4.85028C13.1477 5.35463 13.4907 5.99801 13.6276 6.69808L10.791 3.86696ZM10.791 1C12.2483 1.16158 13.6072 1.81291 14.6446 2.84704C15.682 3.88118 16.3363 5.23665 16.5 6.69091L10.791 1ZM15.7819 12.4105V14.5607C15.7827 14.7603 15.7417 14.9579 15.6616 15.1408C15.5815 15.3237 15.464 15.4879 15.3166 15.6228C15.1692 15.7578 14.9952 15.8605 14.8058 15.9244C14.6163 15.9884 14.4156 16.0121 14.2164 15.9942C12.0067 15.7545 9.88404 15.0009 8.0191 13.7938C6.28402 12.6934 4.81297 11.2251 3.71043 9.49336C2.49681 7.62353 1.74154 5.49467 1.50583 3.27923C1.48788 3.08103 1.51148 2.88127 1.57513 2.69267C1.63877 2.50407 1.74106 2.33076 1.87549 2.18378C2.00992 2.0368 2.17353 1.91937 2.35592 1.83896C2.53831 1.75855 2.73548 1.71693 2.93487 1.71674H5.08921C5.43771 1.71332 5.77557 1.83649 6.03981 2.06331C6.30406 2.29012 6.47665 2.6051 6.52543 2.94953C6.61636 3.63765 6.78499 4.31329 7.02811 4.96357C7.12472 5.22011 7.14564 5.49891 7.08836 5.76695C7.03109 6.03498 6.89803 6.28101 6.70496 6.47589L5.79296 7.38615C6.81523 9.18053 8.3038 10.6663 10.1016 11.6866L11.0136 10.7763C11.2089 10.5836 11.4554 10.4508 11.7239 10.3936C11.9925 10.3365 12.2718 10.3574 12.5288 10.4538C13.1804 10.6964 13.8573 10.8647 14.5467 10.9555C14.8956 11.0046 15.2142 11.18 15.4419 11.4483C15.6696 11.7165 15.7906 12.059 15.7819 12.4105Z" stroke="#F1F1F1" stroke-width="1.3" stroke-linecap="round" stroke-linejoin="round"/>
</svg>
