<svg width="82" height="76" viewBox="0 0 82 76" fill="none" xmlns="http://www.w3.org/2000/svg">
<path d="M46 13H82M46 15.4H82M46 17.8H82M46 20.2H82M46 22.6H82M46 32.2H82M46 34.6H82M46 37H82M46 39.4H82M46 41.8H82M46 51.4H82M46 53.8H82M46 56.2H82M46 58.6H82M46 61H82" stroke="white" stroke-width="0.4"/>
<line x1="31.2" y1="5" x2="31.2" y2="70" stroke="#F1F1F1" stroke-width="0.4"/>
<g clip-path="url(#clip0)">
<path d="M10.0334 63.3333C10.6845 63.4604 11.283 63.7788 11.7521 64.248C12.2212 64.7171 12.5397 65.3155 12.6667 65.9667L10.0334 63.3333ZM10.0334 60.6667C11.3862 60.817 12.6478 61.4228 13.6109 62.3847C14.574 63.3466 15.1814 64.6073 15.3334 65.96L10.0334 60.6667ZM14.6667 71.28V73.28C14.6675 73.4657 14.6294 73.6495 14.555 73.8196C14.4807 73.9897 14.3716 74.1424 14.2348 74.2679C14.0979 74.3934 13.9364 74.489 13.7605 74.5485C13.5847 74.608 13.3983 74.6301 13.2134 74.6133C11.1619 74.3904 9.19137 73.6894 7.46004 72.5667C5.84926 71.5431 4.48359 70.1775 3.46004 68.5667C2.33336 66.8275 1.6322 64.8473 1.41337 62.7867C1.39671 62.6023 1.41862 62.4165 1.4777 62.2411C1.53679 62.0657 1.63175 61.9045 1.75655 61.7678C1.88134 61.631 2.03324 61.5218 2.20256 61.447C2.37189 61.3722 2.55493 61.3335 2.74004 61.3333H4.74004C5.06357 61.3302 5.37723 61.4447 5.62254 61.6557C5.86786 61.8667 6.02809 62.1596 6.07337 62.48C6.15779 63.12 6.31434 63.7485 6.54004 64.3533C6.62973 64.592 6.64914 64.8513 6.59597 65.1006C6.5428 65.3499 6.41928 65.5787 6.24004 65.76L5.39337 66.6067C6.34241 68.2757 7.72434 69.6576 9.39337 70.6067L10.24 69.76C10.4213 69.5808 10.6501 69.4572 10.8994 69.4041C11.1488 69.3509 11.4081 69.3703 11.6467 69.46C12.2516 69.6857 12.88 69.8423 13.52 69.9267C13.8439 69.9724 14.1396 70.1355 14.3511 70.385C14.5625 70.6345 14.6748 70.9531 14.6667 71.28Z" stroke="#F1F1F1" stroke-width="1.66667" stroke-linecap="round" stroke-linejoin="round"/>
</g>
<path d="M2.66659 2.66667H13.3333C14.0666 2.66667 14.6666 3.26667 14.6666 4.00001V12C14.6666 12.7333 14.0666 13.3333 13.3333 13.3333H2.66659C1.93325 13.3333 1.33325 12.7333 1.33325 12V4.00001C1.33325 3.26667 1.93325 2.66667 2.66659 2.66667Z" stroke="#F1F1F1" stroke-width="1.66667" stroke-linecap="round" stroke-linejoin="round"/>
<path d="M14.6666 4L7.99992 8.66667L1.33325 4" stroke="#F1F1F1" stroke-width="1.66667" stroke-linecap="round" stroke-linejoin="round"/>
<path d="M8 38.6667C9.10457 38.6667 10 37.7712 10 36.6667C10 35.5621 9.10457 34.6667 8 34.6667C6.89543 34.6667 6 35.5621 6 36.6667C6 37.7712 6.89543 38.6667 8 38.6667Z" stroke="#F1F1F1" stroke-width="1.66667" stroke-linecap="round" stroke-linejoin="round"/>
<path d="M8.00008 31.3333C6.58559 31.3333 5.22904 31.8952 4.22885 32.8954C3.22865 33.8956 2.66675 35.2522 2.66675 36.6667C2.66675 37.928 2.93475 38.7533 3.66675 39.6667L8.00008 44.6667L12.3334 39.6667C13.0654 38.7533 13.3334 37.928 13.3334 36.6667C13.3334 35.2522 12.7715 33.8956 11.7713 32.8954C10.7711 31.8952 9.41457 31.3333 8.00008 31.3333V31.3333Z" stroke="#F1F1F1" stroke-width="1.66667" stroke-linecap="round" stroke-linejoin="round"/>
<defs>
<clipPath id="clip0">
<rect width="16" height="16" fill="white" transform="translate(0 60)"/>
</clipPath>
</defs>
</svg>
