<svg width="134" height="22" viewBox="0 0 134 22" fill="none" xmlns="http://www.w3.org/2000/svg">
<path d="M4.736 0.991999C5.6 0.991999 6.728 1.12 8.12 1.376L8.072 3.176C6.76 2.92 5.648 2.792 4.736 2.792C3.808 2.792 3.136 2.976 2.72 3.344C2.32 3.712 2.12 4.272 2.12 5.024V5.648C2.12 6.048 2.168 6.368 2.264 6.608C2.376 6.832 2.568 7.032 2.84 7.208C3.112 7.368 3.52 7.536 4.064 7.712L6.296 8.456C7.368 8.824 8.12 9.312 8.552 9.92C9 10.528 9.224 11.416 9.224 12.584V13.04C9.224 14.464 8.808 15.528 7.976 16.232C7.16 16.936 5.816 17.288 3.944 17.288C3.032 17.288 1.864 17.128 0.44 16.808L0.488 14.96C1.816 15.28 2.952 15.44 3.896 15.44C5.096 15.44 5.944 15.264 6.44 14.912C6.936 14.544 7.184 13.976 7.184 13.208V12.416C7.184 11.856 7.056 11.432 6.8 11.144C6.56 10.84 6.128 10.584 5.504 10.376L3.032 9.56C1.928 9.192 1.16 8.72 0.728 8.144C0.296 7.552 0.08 6.664 0.08 5.48V5.216C0.08 3.824 0.448 2.776 1.184 2.072C1.936 1.352 3.12 0.991999 4.736 0.991999ZM14.1425 5.288H17.2625V6.968H14.1425V13.832C14.1425 14.44 14.2625 14.88 14.5025 15.152C14.7585 15.408 15.1505 15.536 15.6785 15.536C16.3505 15.536 17.0065 15.456 17.6465 15.296L17.6945 17C16.9905 17.192 16.3505 17.288 15.7745 17.288C14.4945 17.288 13.5585 17.008 12.9665 16.448C12.3905 15.872 12.1025 14.944 12.1025 13.664V6.968H10.4225V5.288H12.1025L12.4865 2.168H14.1425V5.288ZM28.0119 17H26.0919V15.32C25.6599 15.96 25.1799 16.448 24.6519 16.784C24.1239 17.12 23.5639 17.288 22.9719 17.288C21.9959 17.288 21.2279 16.952 20.6679 16.28C20.1239 15.592 19.8519 14.592 19.8519 13.28V5.288H21.8919V12.92C21.8919 13.768 22.0199 14.392 22.2759 14.792C22.5479 15.192 22.9159 15.392 23.3799 15.392C23.8119 15.392 24.2599 15.224 24.7239 14.888C25.2039 14.536 25.6199 14.056 25.9719 13.448V5.288H28.0119V17ZM39.4471 17H37.5031V15.104C36.5431 16.56 35.4471 17.288 34.2151 17.288C33.2231 17.288 32.4631 16.952 31.9351 16.28C31.4071 15.592 31.1431 14.592 31.1431 13.28V9.008C31.1431 7.744 31.4311 6.76 32.0071 6.056C32.5991 5.352 33.4391 5 34.5271 5C34.9911 5 35.4791 5.12 35.9911 5.36C36.5031 5.584 36.9751 5.864 37.4071 6.2V0.607999H39.4471V17ZM34.9831 6.824C34.4071 6.824 33.9591 7.032 33.6391 7.448C33.3351 7.848 33.1831 8.464 33.1831 9.296V13.016C33.1831 14.648 33.6871 15.464 34.6951 15.464C35.1751 15.464 35.6471 15.28 36.1111 14.912C36.5911 14.528 37.0231 13.992 37.4071 13.304V8.024C37.0711 7.672 36.6711 7.384 36.2071 7.16C35.7591 6.936 35.3511 6.824 34.9831 6.824ZM44.8372 5.288V17H42.7972V5.288H44.8372ZM43.8052 0.559999C44.2372 0.559999 44.5652 0.655999 44.7892 0.847999C45.0292 1.04 45.1492 1.312 45.1492 1.664V2.36C45.1492 2.712 45.0292 2.984 44.7892 3.176C44.5652 3.352 44.2372 3.44 43.8052 3.44C43.3892 3.44 43.0612 3.352 42.8212 3.176C42.5972 2.984 42.4852 2.712 42.4852 2.36V1.664C42.4852 1.312 42.5972 1.04 42.8212 0.847999C43.0612 0.655999 43.3892 0.559999 43.8052 0.559999ZM52.1718 5C53.5958 5 54.6518 5.384 55.3398 6.152C56.0438 6.904 56.3958 7.976 56.3958 9.368V12.92C56.3958 14.312 56.0438 15.392 55.3398 16.16C54.6518 16.912 53.5958 17.288 52.1718 17.288C50.7478 17.288 49.6838 16.912 48.9798 16.16C48.2918 15.392 47.9478 14.312 47.9478 12.92V9.368C47.9478 7.976 48.2918 6.904 48.9798 6.152C49.6838 5.384 50.7478 5 52.1718 5ZM52.1718 6.704C51.4838 6.704 50.9478 6.92 50.5638 7.352C50.1798 7.784 49.9878 8.4 49.9878 9.2V13.088C49.9878 13.888 50.1798 14.504 50.5638 14.936C50.9478 15.368 51.4838 15.584 52.1718 15.584C52.8598 15.584 53.3958 15.368 53.7798 14.936C54.1638 14.504 54.3558 13.888 54.3558 13.088V9.176C54.3558 8.376 54.1638 7.768 53.7798 7.352C53.3958 6.92 52.8598 6.704 52.1718 6.704ZM72.2206 1.28V3.128H65.9806V8.096H71.7406V9.92H65.9806V15.152H72.2206V17H63.9406V1.28H72.2206ZM79.7891 0.319999C80.3171 0.319999 80.8211 0.375999 81.3011 0.487999V2.12C80.8211 2.04 80.3251 2 79.8131 2C79.3171 2 78.9251 2.16 78.6371 2.48C78.3651 2.8 78.2291 3.288 78.2291 3.944V5.288H80.6291V6.968H78.2291V17H76.1891V6.968H74.5091V5.288H76.1891V4.064C76.2051 2.816 76.5171 1.88 77.1251 1.256C77.7331 0.631999 78.6211 0.319999 79.7891 0.319999ZM87.2947 0.319999C87.9667 0.319999 88.7427 0.407999 89.6227 0.584V2.36C88.7587 2.12 87.9747 2 87.2707 2C86.6627 2 86.2147 2.152 85.9267 2.456C85.6387 2.744 85.4947 3.2 85.4947 3.824V5.288H91.4707V17H89.4307V6.968H85.4947V17H83.4547V6.968H81.7747V5.288H83.4547V4.184C83.4707 2.856 83.7747 1.88 84.3667 1.256C84.9747 0.631999 85.9507 0.319999 87.2947 0.319999ZM98.9324 5C99.6524 5 100.468 5.104 101.38 5.312L101.332 7.112C100.404 6.904 99.6044 6.8 98.9324 6.8C98.1804 6.8 97.6044 7.008 97.2044 7.424C96.8204 7.84 96.6284 8.432 96.6284 9.2V13.064C96.6284 13.864 96.8284 14.472 97.2284 14.888C97.6444 15.288 98.2124 15.488 98.9324 15.488C99.3804 15.488 99.7724 15.464 100.108 15.416C100.444 15.368 100.852 15.288 101.332 15.176L101.38 16.976C100.404 17.184 99.5804 17.288 98.9084 17.288C96.0284 17.288 94.5884 15.832 94.5884 12.92V9.368C94.5884 6.456 96.0364 5 98.9324 5ZM107.756 5C109.132 5 110.132 5.312 110.756 5.936C111.396 6.544 111.716 7.52 111.716 8.864V17H109.772V15.128C108.844 16.568 107.796 17.288 106.628 17.288C105.7 17.288 104.956 16.968 104.396 16.328C103.852 15.688 103.58 14.816 103.58 13.712V13.04C103.58 12.08 103.908 11.288 104.564 10.664C105.22 10.024 106.1 9.704 107.204 9.704C107.812 9.704 108.636 9.808 109.676 10.016V8.696C109.676 8.008 109.516 7.512 109.196 7.208C108.892 6.904 108.412 6.752 107.756 6.752C106.988 6.752 105.908 6.872 104.516 7.112V5.36C106.02 5.12 107.1 5 107.756 5ZM107.708 11.288C107.036 11.288 106.524 11.464 106.172 11.816C105.82 12.168 105.644 12.664 105.644 13.304V13.568C105.644 14.16 105.78 14.624 106.052 14.96C106.324 15.296 106.668 15.464 107.084 15.464C107.516 15.464 107.956 15.28 108.404 14.912C108.868 14.528 109.292 13.992 109.676 13.304V11.456C109.068 11.344 108.412 11.288 107.708 11.288ZM119.065 5C119.785 5 120.601 5.104 121.513 5.312L121.465 7.112C120.537 6.904 119.737 6.8 119.065 6.8C118.313 6.8 117.737 7.008 117.337 7.424C116.953 7.84 116.761 8.432 116.761 9.2V13.064C116.761 13.864 116.961 14.472 117.361 14.888C117.777 15.288 118.345 15.488 119.065 15.488C119.513 15.488 119.905 15.464 120.241 15.416C120.577 15.368 120.985 15.288 121.465 15.176L121.513 16.976C120.537 17.184 119.713 17.288 119.041 17.288C116.161 17.288 114.721 15.832 114.721 12.92V9.368C114.721 6.456 116.169 5 119.065 5ZM133.326 5.288L127.95 21.44H125.91L127.446 17H126.678L123.342 5.288H125.574L128.094 15.536L131.214 5.288H133.326Z" fill="#F1F1F1"/>
</svg>
