<svg width="70" height="39" viewBox="0 0 70 39" fill="none" xmlns="http://www.w3.org/2000/svg">
<path d="M38.1135 34.7845L38.7269 35.0433V24.8098L38.1135 25.0694V34.7845Z" fill="#D6D6D6"/>
<path d="M9.7346 27.5621L8.14164 28.2343C8.11481 28.2459 8.09741 28.272 8.09741 28.301C8.09741 28.33 8.11481 28.3561 8.14164 28.3677L9.7346 29.0398C9.74403 29.0441 9.75345 29.0456 9.76288 29.0456C9.77738 29.0456 9.79116 29.042 9.80276 29.0333C9.82306 29.0195 9.83539 28.997 9.83539 28.9731V27.6288C9.83539 27.6049 9.82306 27.5824 9.80276 27.5686C9.78318 27.5541 9.7578 27.552 9.7346 27.5621Z" fill="#D6D6D6"/>
<path d="M7.91487 28.5062C7.89167 28.4946 7.86629 28.4975 7.84671 28.5127C7.82641 28.5265 7.81409 28.549 7.81409 28.5729V29.6148C7.81409 29.6438 7.83149 29.6699 7.85832 29.6815L9.73478 30.4733C9.7442 30.4776 9.75363 30.4791 9.76305 30.4791C9.77756 30.4791 9.79133 30.4755 9.80293 30.4668C9.82323 30.453 9.83556 30.4305 9.83556 30.4066V29.3647C9.83556 29.3357 9.81816 29.3096 9.79133 29.298L7.91487 28.5062Z" fill="#D6D6D6"/>
<path d="M24.4333 29.0101C24.4428 29.0145 24.4522 29.0159 24.4616 29.0159C24.471 29.0159 24.4805 29.0145 24.4899 29.0101L68.6984 10.3267C68.7252 10.3151 68.7426 10.289 68.7426 10.26C68.7426 10.231 68.7259 10.2042 68.6984 10.1933L44.593 0.00543797C44.5748 -0.00181266 44.5545 -0.00181266 44.5364 0.00543797L0.32792 18.6888C0.301093 18.7004 0.283691 18.7265 0.283691 18.7555C0.283691 18.7845 0.301093 18.8114 0.32792 18.8223L24.4333 29.0101ZM44.5647 0.151174L68.4838 10.26L24.4616 28.8651L0.541814 18.7563L44.5647 0.151174Z" fill="#D6D6D6"/>
<path d="M24.2809 30.3638C24.2954 30.3638 24.3092 30.3602 24.3208 30.3515C24.3411 30.3377 24.3534 30.3152 24.3534 30.2913V29.2595C24.3534 29.2305 24.336 29.2044 24.3092 29.1928L0.100784 18.9615C0.0775816 18.9528 0.0529294 18.9542 0.0326277 18.968C0.0123259 18.9811 0 19.0035 0 19.0282V20.0607C0 20.0897 0.0174014 20.1158 0.0442287 20.1274L24.2526 30.358C24.262 30.3624 24.2715 30.3638 24.2809 30.3638Z" fill="#D6D6D6"/>
<path d="M68.994 10.4717C68.9737 10.4586 68.9491 10.4572 68.9251 10.4652L24.6137 29.1928C24.5869 29.2044 24.5695 29.2305 24.5695 29.2595V30.292C24.5695 30.3159 24.5818 30.3384 24.6021 30.3522C24.6144 30.3609 24.6282 30.3645 24.642 30.3645C24.6514 30.3645 24.6608 30.3631 24.6702 30.3587L68.9817 11.6325C69.0085 11.6209 69.0259 11.5948 69.0259 11.5658V10.5333C69.0259 10.508 69.0136 10.4855 68.994 10.4717Z" fill="#D6D6D6"/>
<path d="M37.6516 30.8699L25.7323 35.9054C25.7055 35.917 25.6881 35.9431 25.6881 35.9721V37.014C25.6881 37.038 25.7004 37.0604 25.7207 37.0742C25.7331 37.0829 25.7468 37.0865 25.7606 37.0865C25.77 37.0865 25.7795 37.0851 25.7889 37.0807L37.7082 32.0452C37.735 32.0336 37.7524 32.0075 37.7524 31.9785V30.9366C37.7524 30.9126 37.7401 30.8902 37.7205 30.8764C37.7002 30.8619 37.6748 30.8597 37.6516 30.8699Z" fill="#D6D6D6"/>
<path d="M22.4328 34.6416C22.4089 34.6307 22.3842 34.6329 22.3647 34.6481C22.3444 34.6619 22.332 34.6844 22.332 34.7083V35.751C22.332 35.78 22.3494 35.8061 22.3763 35.8177L25.3715 37.0807C25.3809 37.0851 25.3903 37.0865 25.3998 37.0865C25.4143 37.0865 25.428 37.0829 25.4396 37.0742C25.4599 37.0604 25.4723 37.038 25.4723 37.014V35.9721C25.4723 35.9431 25.4549 35.917 25.428 35.9054L22.4328 34.6416Z" fill="#D6D6D6"/>
<path d="M21.3226 29.3552C21.2994 29.3436 21.274 29.3472 21.2544 29.3617C21.2341 29.3755 21.2218 29.398 21.2218 29.4219V38.9275C21.2218 38.9514 21.2341 38.9739 21.2544 38.9877C21.2668 38.9964 21.2805 39 21.2943 39C21.3037 39 21.3132 38.9985 21.3226 38.9942L22.0716 38.6759C22.0984 38.6643 22.1158 38.6382 22.1158 38.6092V29.7381C22.1158 29.7091 22.0984 29.6829 22.0716 29.6713L21.3226 29.3552Z" fill="#D6D6D6"/>
<path d="M10.1523 24.6343C10.1291 24.6227 10.1044 24.6256 10.0841 24.6408C10.0638 24.6546 10.0515 24.6771 10.0515 24.701V34.3603C10.0515 34.3893 10.0689 34.4154 10.0957 34.427L20.905 38.9942C20.9144 38.9985 20.9238 39 20.9332 39C20.9477 39 20.9615 38.9963 20.9731 38.9876C20.9934 38.9739 21.0058 38.9514 21.0058 38.9275V29.2696C21.0058 29.2406 20.9884 29.2145 20.9615 29.2029L10.1523 24.6343ZM20.8607 38.8187L10.1965 34.3124V24.8098L20.8607 29.3175V38.8187Z" fill="#D6D6D6"/>
<path d="M58.9019 19.6046C58.9164 19.6046 58.9301 19.6009 58.9425 19.5922C58.962 19.5785 58.9744 19.556 58.9744 19.532V16.2055C58.9744 16.1808 58.962 16.1583 58.9425 16.1453C58.9229 16.1322 58.8975 16.1308 58.8736 16.1388L58.1159 16.4592C58.0891 16.4708 58.0717 16.4969 58.0717 16.5259V19.2123C58.0717 19.2413 58.0883 19.2681 58.1159 19.279L58.8736 19.5988C58.8823 19.6031 58.8917 19.6046 58.9019 19.6046Z" fill="#D6D6D6"/>
<path d="M61.1111 20.9546L50.3019 25.5218C50.2751 25.5334 50.2577 25.5595 50.2577 25.5885V26.6304C50.2577 26.6544 50.27 26.6768 50.2896 26.6906C50.3019 26.6993 50.3157 26.7029 50.3302 26.7029C50.3404 26.7029 50.349 26.7015 50.3585 26.6971L61.1677 22.13C61.1945 22.1184 61.2119 22.0923 61.2119 22.0633V21.0214C61.2119 20.9974 61.1996 20.9749 61.18 20.9612C61.159 20.9467 61.1343 20.943 61.1111 20.9546Z" fill="#D6D6D6"/>
<path d="M49.9407 19.9135L39.1315 24.4821C39.1047 24.4937 39.0873 24.5198 39.0873 24.5488V35.1522C39.0873 35.1761 39.0996 35.1986 39.1192 35.2123C39.1315 35.221 39.1453 35.2247 39.1598 35.2247C39.1699 35.2247 39.1786 35.2232 39.1881 35.2189L49.9973 30.651C50.0241 30.6394 50.0415 30.6133 50.0415 30.5843V19.9802C50.0415 19.9563 50.0292 19.9338 50.0096 19.92C49.9893 19.9063 49.9639 19.9041 49.9407 19.9135ZM49.8972 30.5364L39.2323 35.0434V24.5967L49.8972 20.089V30.5364Z" fill="#D6D6D6"/>
</svg>
