<svg width="57" height="55" viewBox="0 0 57 55" fill="none" xmlns="http://www.w3.org/2000/svg">
<path d="M56.9919 13.1778V26.3961L56.6103 26.7047V30.9673C46.891 38.697 37.1799 46.4185 27.4607 54.14C18.3098 46.589 9.15086 39.038 0 31.4788V18.1143C7.59188 12.0735 15.1838 6.04082 22.7756 0L24.4889 1.41277V14.7773L23.1816 15.8166V15.573L22.7594 15.2238L10.4256 25.0321L27.3876 38.9893L46.0628 24.1389L39.8188 18.9831L33.5504 23.9684L33.453 23.8466L33.3556 23.9603L28.094 19.6164L28.1915 19.5028H28.0372V6.35748L29.2714 5.35067L33.4774 8.81765L39.8432 3.75115L42.4739 5.92715L45.4944 3.53193C49.3513 6.71473 53.135 9.98684 57 13.1696L56.9919 13.1778ZM4.75812 35.0108V24.0253L4.75 24.0171L4.75812 24.0009V23.9847L4.76624 23.9928L4.94487 23.7817L10.2551 28.3285V39.5495L27.3064 53.6204V40.7999L0.308547 18.5203V31.3408L4.75812 35.0189V35.0108ZM5.76496 24.8859V28.3935L7.86795 26.6803L5.76496 24.8859ZM5.76496 28.7913V34.4099L4.87991 35.1163L9.9547 39.2978V28.4666L8.10342 26.8833L5.76496 28.7913ZM53.8577 27.7926L43.562 35.8552V29.449L53.7603 21.3377L53.8577 27.7926ZM43.8705 34.1339L46.0547 32.3963L51.1539 28.3448L48.3526 26.0307L43.8705 29.5951V34.1339ZM51.9821 19.4378L54.215 17.6597L51.9821 15.8166V19.4378ZM47.297 23.1646L51.6816 19.6814V15.5649L47.297 11.9517V23.1727V23.1646ZM51.9821 27.4922L52.7128 26.9076V22.5638L51.9821 23.1484V27.4922ZM51.2756 28.0525L51.6735 27.7358V23.3919L48.5962 25.844L51.2756 28.0525ZM46.3064 23.9522L46.9885 23.4082V11.6919L42.6038 8.07879V20.8993L46.3064 23.9522ZM42.6932 7.75401L45.3158 9.91377V5.66733L42.6932 7.75401ZM45.6244 10.1736L51.8359 15.2969L54.6128 13.0884L45.6325 5.67545V10.1655L45.6244 10.1736ZM56.3017 26.6316V17.9926L27.615 40.7999V53.6285L56.3017 30.8212V26.6316ZM33.2987 10.7176L28.3376 6.62542V19.4459L33.2987 23.5381V10.7176ZM56.6833 13.4213L54.0607 15.508L56.6021 17.6028V26.3068L56.6833 26.2418V13.4132V13.4213ZM2.38718 18.2118L10.3038 24.7479L22.6051 14.964V2.1354L2.38718 18.2118ZM24.1885 1.81062L23.4902 2.37086V15.1995L24.1885 14.6392V1.81062ZM23.1816 2.36274L22.9137 2.14352V14.964L23.1816 15.1832V2.36274ZM42.2953 7.81897L39.9731 5.90279V18.7233L42.2953 20.6395V7.81897ZM39.6645 5.89467L33.5991 10.7176V23.5462L39.6645 18.7233V5.89467Z" fill="#D6D6D6"/>
</svg>
