<svg width="59" height="51" viewBox="0 0 59 51" fill="none" xmlns="http://www.w3.org/2000/svg">
<path fill-rule="evenodd" clip-rule="evenodd" d="M49.6453 17.7294V40.9922L51.7081 40.4452C51.7726 40.4027 51.8267 40.4027 51.8693 40.4452L57.6064 41.2181C57.8855 41.2606 58.0254 41.4002 58.0254 41.6351C58.068 41.8925 57.961 42.0534 57.7031 42.1178L29.1785 51H28.8884L0.331589 42.1184C0.073739 42.0541 -0.0339132 41.8932 0.00927662 41.6358C0.00927662 41.4009 0.14916 41.2612 0.428282 41.2188L6.1332 40.4459C6.17575 40.4034 6.2299 40.4034 6.29436 40.4459L7.87369 40.832V13.2882C7.87369 13.0089 8.00261 12.8481 8.26046 12.8056L11.1613 12.2264V10.9393C11.1613 10.7244 11.2799 10.5751 11.5158 10.4895L16.705 8.71972H16.9307L22.3777 9.55568C22.6575 9.59816 22.7967 9.74939 22.7967 10.0068V10.7784L23.119 10.8112V3.15305C23.119 2.89563 23.237 2.73475 23.4736 2.67039L24.7951 2.34862V1.51137C24.7951 1.25395 24.9027 1.09306 25.1174 1.02871L28.695 0.0318555C28.8027 -0.0106185 28.8884 -0.0106185 28.9529 0.0318555L32.8851 1.02871C33.1429 1.09306 33.2719 1.25395 33.2719 1.51137V2.38015L34.5611 2.67039C34.819 2.73475 34.9479 2.89563 34.9479 3.15305V14.0933C35.0123 14.029 35.0878 13.9968 35.1735 13.9968L40.6206 13.1924H40.8462L46.0354 14.9293C46.2501 14.9949 46.3577 15.1442 46.3577 15.3804V16.6675L49.2908 17.2782C49.5267 17.3207 49.6453 17.4713 49.6453 17.7294ZM45.7776 17.5356C45.5629 17.4932 45.4443 17.3535 45.423 17.1173L40.685 16.1205H40.6528L37.8487 15.5722V44.21L48.7106 41.5714V18.1464L45.7776 17.5356ZM45.423 15.7331L40.8784 14.2536V15.8296L45.423 16.8277V15.7331ZM32.3049 1.86532L28.9851 0.99653V1.64008L32.3049 2.47604V1.86532ZM25.7298 2.41233L28.6628 1.57508V1.02806L25.7298 1.86532V2.41233ZM25.7298 2.70128C25.7085 2.93746 25.5899 3.0887 25.3752 3.15241L24.0537 3.50571V11.2611L26.6645 11.55C26.7721 11.55 26.8256 11.6041 26.8256 11.7109V22.9414H28.5983V1.92967L25.7298 2.70128ZM19.8637 10.7784L21.8298 11.0358V10.4238L17.0273 9.71593V11.3248L19.7992 10.7778L19.8315 10.745H19.8637V10.7784ZM20.0248 11.1002V44.1462L21.5719 44.5324V24.5181C21.5719 24.4113 21.6254 24.3572 21.7331 24.3572H22.8612V23.103C22.8612 22.9961 22.9147 22.9421 23.0223 22.9421H26.5033V11.8409L24.0215 11.5507C24.0002 11.5944 23.957 11.6472 23.8926 11.7116C23.7205 11.7984 23.5922 11.83 23.5058 11.8081L22.2488 11.68C21.9909 11.68 21.8511 11.5616 21.8298 11.3254L20.0248 11.1002ZM16.705 9.74875L12.096 11.2933V12.3866L16.705 11.3885V9.74875ZM32.6595 3.18394C32.4448 3.11959 32.3262 2.98058 32.3049 2.76692L28.9207 1.92967V22.9414H30.7256V16.152C30.7256 16.0664 30.7791 16.024 30.8868 16.024L33.9809 15.6694V3.50636L32.6595 3.18394ZM34.0132 15.9596L31.0479 16.3129V22.9421H35.0768C35.1845 22.9421 35.238 22.9961 35.238 23.103V24.3572H36.2694C36.377 24.3572 36.4305 24.4113 36.4305 24.5181V44.5324L37.5264 44.3071V15.5407L35.7214 15.7659C35.7002 15.9596 35.5603 16.0774 35.3024 16.1205L34.4966 16.2157C34.3677 16.2595 34.2498 16.2273 34.1421 16.1205C34.0776 16.0774 34.0345 16.0233 34.0132 15.9596ZM35.7214 15.4441L37.6553 15.2189C37.6553 15.1764 37.6766 15.1764 37.7198 15.2189L40.5561 15.7659V14.1899L35.7214 14.8334V15.4441ZM34.9157 23.2632H23.1835V24.3566H34.9157V23.2632ZM21.8943 24.679V44.6289L28.8884 46.3343V24.679H21.8943ZM28.9851 46.6889L8.74393 41.7329C8.72266 41.7542 8.69042 41.7754 8.64723 41.7973C8.51831 41.9054 8.37843 41.937 8.22823 41.8938L6.16543 41.4112L2.68447 41.8295L29.0496 50.0347L55.3825 41.8295L51.837 41.4112L49.2908 42.0547C49.1406 42.0972 49.0007 42.0663 48.8718 41.9582C48.8292 41.937 48.7963 41.9054 48.7751 41.8629L29.0818 46.6895H28.9851V46.6889ZM29.2107 46.3343L36.1082 44.6289V24.679H29.2107V46.3343ZM19.7025 11.133L12.096 12.6762C12.0747 12.8912 11.9458 13.0205 11.7092 13.0636L8.84062 13.6744V41.4434L19.7025 44.0491V11.133Z" fill="#D6D6D6"/>
</svg>
