<svg width="69" height="46" viewBox="0 0 69 46" fill="none" xmlns="http://www.w3.org/2000/svg">
<path d="M34.3758 18.1552C31.5882 18.1552 28.98 16.3732 28.0002 13.7486C27.0066 11.0687 27.807 8.04351 29.9598 6.17864C32.0988 4.32759 35.3004 4.0375 37.7568 5.44651C40.1994 6.85552 41.5656 9.71498 41.0826 12.4916C40.5168 15.7516 37.6602 18.1138 34.3758 18.1552C33.4926 18.169 33.4926 19.5504 34.3758 19.5366C37.8396 19.4952 40.9584 17.3126 42.1038 14.0249C43.2354 10.8063 42.1452 7.09035 39.4818 4.96303C36.8322 2.84951 33.051 2.57324 30.1392 4.34141C27.2136 6.12339 25.7094 9.59066 26.3442 12.9474C27.0618 16.7324 30.5394 19.5366 34.362 19.5366C35.2728 19.5366 35.2728 18.1552 34.3758 18.1552Z" fill="white"/>
<path d="M21.9972 38.9864C21.9972 36.9973 21.9834 35.0219 21.9972 33.0327C22.0386 29.0958 24.6606 25.8357 28.1244 24.1918C29.9322 23.3492 31.8918 22.99 33.879 22.99C35.673 22.99 37.4256 23.0729 39.1506 23.6393C42.7938 24.8135 45.954 27.7558 46.6026 31.6237C46.8096 32.8669 46.713 34.1931 46.713 35.4501C46.713 36.6243 46.713 37.7985 46.713 38.9726C46.713 39.8567 48.093 39.8567 48.093 38.9726C48.093 36.7348 48.2448 34.4417 48.0654 32.2177C47.7066 28.0321 44.7948 24.551 41.0274 22.8795C33.8652 19.6885 22.839 22.1888 20.8794 30.7396C20.5482 32.1762 20.6172 33.6543 20.6172 35.1186C20.6172 36.4033 20.6172 37.6879 20.6172 38.9726C20.6172 39.8705 21.9972 39.8843 21.9972 38.9864Z" fill="white"/>
<path d="M13.3997 22.8519C11.3021 22.8519 9.34255 21.5258 8.61115 19.5504C7.85215 17.5474 8.44555 15.2543 10.0463 13.8453C11.6471 12.4363 14.0483 12.1876 15.8975 13.2237C17.7467 14.2597 18.8093 16.3732 18.4919 18.4729C18.0917 21.0009 15.9113 22.8105 13.3997 22.8519C12.5165 22.8657 12.5165 24.2471 13.3997 24.2333C16.2011 24.1918 18.6989 22.4237 19.5821 19.7438C20.4239 17.2021 19.5407 14.3012 17.4569 12.6435C15.3317 10.9444 12.2957 10.7372 9.97735 12.1738C7.65895 13.6105 6.49975 16.3594 7.01035 19.0255C7.60375 22.0231 10.3499 24.2333 13.3859 24.2333C14.2829 24.2333 14.2829 22.8519 13.3997 22.8519Z" fill="white"/>
<path d="M4.00195 39.1937C4.00195 38.0471 4.00195 36.9144 4.00195 35.7678C4.00195 34.3588 4.01575 33.0189 4.65055 31.7066C5.53375 29.8555 7.17595 28.4465 9.06655 27.6729C10.8054 26.9546 12.6684 26.8441 14.5176 26.9408C17.1948 27.0789 19.7478 28.2807 21.4314 30.3804C21.9834 31.0711 22.9632 30.0904 22.4112 29.3997C19.4855 25.7666 14.1449 24.7582 9.78415 25.9738C5.67175 27.1342 2.62195 30.56 2.62195 34.9114C2.62195 36.3342 2.62195 37.7708 2.62195 39.1937C2.62195 40.0777 4.00195 40.0777 4.00195 39.1937Z" fill="white"/>
<path d="M55.4345 22.8933C53.3369 22.8933 51.3773 21.5672 50.6459 19.5918C49.8869 17.5888 50.4803 15.2957 52.0811 13.8867C53.6819 12.4777 56.0831 12.2291 57.9323 13.2651C59.7815 14.3011 60.8441 16.4146 60.5267 18.5143C60.1403 21.0285 57.9461 22.8519 55.4345 22.8933C54.5513 22.9071 54.5513 24.2885 55.4345 24.2747C58.2359 24.2333 60.7337 22.4651 61.6169 19.7852C62.4587 17.2435 61.5755 14.3426 59.4917 12.6849C57.3665 10.9858 54.3305 10.7786 52.0121 12.2152C49.6937 13.6519 48.5345 16.4008 49.0451 19.0669C49.6385 22.0645 52.3847 24.2747 55.4207 24.2747C56.3315 24.2747 56.3315 22.8933 55.4345 22.8933Z" fill="white"/>
<path d="M47.4581 30.4771C48.9209 28.6122 51.0599 27.4519 53.3921 27.0789C55.1861 26.8026 57.2423 26.8717 58.9811 27.3966C60.9545 27.9906 62.7761 29.2338 63.8801 30.9882C64.7219 32.3281 64.9427 33.751 64.9427 35.2981C64.9427 36.6104 64.9427 37.9227 64.9427 39.2212C64.9427 40.1053 66.3227 40.1053 66.3227 39.2212C66.3227 36.348 66.7229 33.1846 65.2463 30.5876C62.9831 26.6092 58.2911 25.2278 53.9717 25.6284C51.0875 25.8909 48.2999 27.2032 46.4783 29.4963C45.9401 30.187 46.9061 31.1678 47.4581 30.4771Z" fill="white"/>
</svg>
